<?xml version="1.0" encoding="UTF-8" standalone="no"?>
<svg id="svg2" xmlns="http://www.w3.org/2000/svg" viewBox="0 0 900 900" version="1.1">
 <g id="g4" fill="none" transform="matrix(1.7656463,0,0,1.7656463,324.90716,255.00942)">
  <g id="g6" stroke-width="0.17200001" stroke="#000" fill="#FFF">
 <path fill="#aaa" stroke="#000000" stroke-width="0.5" stroke-miterlimit="10" d="M156.7,54.8l2.3,0.6l2.1,0.5l2.3,0.1l0.1,0l0,0
		l-0.1,1.5l0.2,1.5l0.4,1.6l0.8,1.3l0.8,0.8l1.8,0.5l5.6-0.1l6.7-0.1l6.2,0.4l8.4,0.4l19.7,1.3l11.6,0.9l0.8,0.1l5.1,0.6l2,0.3
		l0.5,0.1l10.3,0.8l0,2.5l0.1,3.6l0.1,3.9l0.1,4.1l0.2,7.6l0.2,6.1l0.1,5.7l0.1,5.7l0.2,7.1l-2.5,1.7l-1.4,0.4l2.1,0.1l0,0l1.7,9.2
		l1.5,8.5l0.5,2.5l0.4,2.4l0.2,1l0.2,1.5l0.6,3.5l0.4,2.3l0.5,3.3l-19.8-4.2l-22.4-4.8l-10.4-2.4l-4.7-1.1l-10.9-2.4l-4.3-1
		l-5.9-1.3l-2.7-0.6l-7.2-1.6l-0.2,0l-0.8-0.2l-3.3-0.7l-0.2-0.1l-5.5-1.1l-17.1-4.1l-4.7-1.5l-3.4-1.1l-4.4-2l-3.4-1.6l-3.1-1.6
		l-5.5-3.3l-3.1-2l-3.5-2.3l-7.5-4.8l-3.7-2.3l-3.2-1.6l-2.9-1.2l-18.1-5.9l-7.1-1.9l-5.6-1.1l-4.2-0.6l-1.4-0.1l-1.9-0.2l-0.3,0
		l-2.7-0.2L41.4,90l-0.5,0l-6.4,0l-0.9,0l0.1-0.2l0.4-0.7l0.6-1l0.4-0.7l1.5-2.5l5.5-9.2l1.3-2.1l1.3-2.1l1.2-1.9L56,52.6l6.7-11.1
		l2.2-3.1l1.7-2.7l0.5-0.8l0.8-1.4l0.1-0.2l0.9-1.5l11.1,6.3l3.4,1.9l0.2,0.1l2,1.1l5.5,3.3l5.2,3.1l0.7,0.4l0.6,0.4l5.6,3.3l8.4,5
		l0.7,0.4l2.9,1.6l0.7,0.4l0.5,0.3l0.3,0.2L138.6,72l0.5,0.3l0.7,0.4l0.7,0.4l1,0.5l0.2,0.1l0-0.1l0-0.2l0.2-0.8l0.1-0.7l0.2-0.7
		l0.3-1l0.5-1.6l1.5-1.5l0.6-0.6l0.9-0.9l0.9-0.9l4.8-4.6l3.3-3.6L156.7,54.8z"/>
	<path fill="#aaa" stroke="#000000" stroke-width="0.5" stroke-miterlimit="10" d="M264.1,154.4l-3.6-0.8l-1.9-0.4l-9.1-2.1
		l-0.5-3.3l-0.4-2.3l-0.6-3.5l-0.2-1.5l-0.2-1l-0.4-2.4l-0.5-2.5l-1.5-8.5l-1.7-9.2l0,0l-2.1-0.1l1.4-0.4l2.5-1.7l-0.2-7.1l-0.1-5.7
		l-0.1-5.7l-0.2-6.1l-0.2-7.6l-0.1-4.1l-0.1-3.9l-0.1-3.6l0-2.5l0-1.8l1.5,1.8l3.4,4l3.2,3.8l4.1,4.9l4.4,5l1.4,1.6l0,0l3.2,3.9
		l0.1,0.1l3.1,3.8l2.5,2.9l0.9,1l1.7,2l1.3,1.5l0.7,0.8l0.6,0.7l2.4,2.9l2.9,3.3l0.1,0.1l2.1,2.6l3.4,4.1l2.8,3.5l3.2,4.1l0.3,0.4
		l3.6,4l2.6,3.3l2.5,2.6l1.3,1l1.7,1.4l2.3,2l-1,2l-0.2,0.5l-0.8,1.6l-2.5,4.7l-2.3,4.4l-2.3,4.5l-2.1,4.1l-12.8-2.5l-3.7-0.8
		l-8.4-1.8L264.1,154.4z"/>
	<path fill="#aaa" stroke="#000000" stroke-width="0.5" stroke-miterlimit="10" d="M353.9,181.2l-0.2-0.1l-12.6-9l-0.8-0.5l-0.3-0.1
		l-1.2-0.4l0.7,3.3l-1.7,0.3l-1,0.2l-4,0.6l-9,1.4l-2.6,0.5l-8.2,3.1l-1.7,0.6l-1.5,0.6l-7.9,3l-1.6,0.6l-0.2,0.1l-3.6,1.3l-0.4,0.1
		l-2.6,1l-0.5,0.2l-2.6,1.1l-1.7,0.8l-4.7,2l-6.4,2.9l-5-11.4l-0.1-0.3l-2.6-6.1l-2.6-5.9l-0.4-0.9l-1-2.5l-1.4-3.2l-1.5-3.4
		l-0.7-1.8l0.6,0l1-5.3l7.3,1.6l8.4,1.8l3.7,0.8l12.8,2.5l2.1-4.1l2.3-4.5l2.3-4.4l2.5-4.7l0.8-1.6l0.2-0.5l1-2l-2.3-2l-1.7-1.4
		l-1.3-1l0.8-0.8l1.3-1.3l3.3-3l2.4-2.1l0.3,0.4l0.8,1.1l0.1-0.1l1-1l0.9-0.9l0.8-0.9l1-1.1l1.5-1.6l0.3-0.3l0.2-0.2l0,0l0.4-0.4
		l1.7-1.7l1-1l1-1l1.7-1.8l1.3-1.4l0.9-0.9l0.8-0.8l1.3-1.3l0.1,0.1l1.1,2.2l0.5,1.1l0.5,1.1l0.5,1l0.5,1.1l1.2,2.5l1.2,1.8
		l7.4,11.2l0.6,0.9l0.5,0.6l0.7,0.8l0.1,0.1l1.2,1.3l2.3,2.5l0.4,0.5l0.2,0.2l0.7,0.8l0.1,0.1l0.1,0.1l0.2,0.2l0.2,0.2l0.2,0.2
		l0.2,0.2l0.3,0.4l0.3,0.2l0.3,0.2l0.6,0.9l0.3,0.4l0.7,1l0.5,0.7l0.2,0.3l0.3,0.4l0.5,0.6l0.9,1.3l2.2,2.9l0.2,0.2l0.6,0.8l2.1,2.8
		l0.6,0.6l1.1,1.5l-1.7,1.3l-1,0.8l-1.4,1l-1.5,1.1l-1.6,1.1l-0.3,0.2l-0.1,0.1l1.3,2.3l0.6,1.1l0.7,1.2l0.7,1.2l0.2,0.4l0.9,1.6
		l-1.5,1l-1,0.7l-0.5,0.3l-1.9,1.3l-0.9,0.6l-0.3,0.2l1.2,1.6l0.4,0.5L353.9,181.2z"/>
	<path fill="#aaa" stroke="#000000" stroke-width="0.5" stroke-miterlimit="10" d="M264.1,154.4l-1,5.3l-0.6,0l0.7,1.8l1.5,3.4
		l1.4,3.2l1,2.5l0.4,0.9l2.6,5.9l2.6,6.1l0.1,0.3l5,11.4l-2.1,1.1l-7,4.1l-3.8,2.2l0.6,0.7l1.8,3.3l0.1,0.2l0.2,0.3l1.4,2.5l1.1,2
		l0.6,1.1l0.1,0.2l-2.4,1.4l-1,0.6l-2.3,1.4l-1.1,0.7l-0.3,0.2l-0.4,0.3l-0.4,0.4l-0.8,0.8l-0.2,0.3l-2.8,3.2l-0.6,0.7l-3.8,4.6
		l-2.1,2.5l-1.5,1.8l-0.7,0.8l-0.8,0.9l-4.9,5.7l-0.2-0.1l-1.3-0.9l-2.3-1.5l-4.1-2.5l-7.7-4.7l-1.3-0.8l-8.8-5.4l-14.1-8.4l-0.1,0
		l-6.1-3.6l-6.2-3.7l-4.7-2.8l-1.9-1.1l-1.5-0.9l-5-3l-6.7-3.9l-3.8-2.4l-2.2-1.3l-3.6-2l-1.5-1l-2.5-1l-1.5-1l-0.9-0.7l-0.2-0.1
		l-0.1,0l0,1.3l-0.4-0.4l-1.3-1.1l-0.9-0.8l-3.6-3l-6.8-5.5l-2.7-1.8l-0.9-0.4l-0.4-0.3l-0.3-0.4l-0.3-0.5l-0.2-0.5l-1.4-1.5
		l-1.2-1.6l0,0l-2.2-0.8l-1.3-0.5l-4.6-1.6l-4.1-1.4l-3.4-1.2l-5.7-1.7l-9.3-2.6l-2.6-0.8l-3.5-1l-4-1.1l-5.7-1.4l-7.9-2l-8.6-1.5
		l-6.3-1.1l-2.7-0.5l-4.3-0.7l-5.8-1l-8.9-1.5l-3.3-0.6l-1.4-0.2l-3.6-0.5l-2-0.2l-3.4-0.5l-3-0.4l-1.5-0.2l-0.1-0.3l-1.9-7.4
		l-0.1-0.5l-0.5-2L20.9,121l-1.4-6.1l-2.5-10.7l0.5-0.4l0.2-0.1l0.3-0.2l1-0.8l0.7-0.5L21,101l2.6-2.2l0.7-0.6l0.5-0.4l1.8-1.5
		l1.2-1l2.3-1.9l2-1.7l0.5-0.4l0.2-0.1l0.8-1.3l0.9,0l6.4,0l0.5,0l2.8,0.1l2.7,0.2l0.3,0l1.9,0.2l1.4,0.1l4.2,0.6l5.6,1.1l7.1,1.9
		l18.1,5.9l2.9,1.2l3.2,1.6l3.7,2.3l7.5,4.8l3.5,2.3l3.1,2l5.5,3.3l3.1,1.6l3.4,1.6l4.4,2l3.4,1.1l4.7,1.5l17.1,4.1l5.5,1.1l0.2,0.1
		l3.3,0.7l0.8,0.2l0.2,0l7.2,1.6l2.7,0.6l5.9,1.3l4.3,1l10.9,2.4l4.7,1.1l10.4,2.4l22.4,4.8l19.8,4.2l9.1,2.1l1.9,0.4L264.1,154.4z"
		/>
	<path fill="#aaa" stroke="#000000" stroke-width="0.5" stroke-miterlimit="10" d="M371.7,208l-0.2,0l-4.4-0.3l-5.3-0.4l-6.4-0.5
		l-4.9-0.4l-4.4-0.4l-5-0.4l-1,0l-0.5,6.1l-1.1,0l-8.4,2.3l-5,1.5l-1.3,0.4l-0.2-0.4l-5-11.3l0,0l-5.9,2.6l-2.6,1.2l0-0.1l-1.7-3.7
		l-0.2,0.1l-7.3,3.2l-3.7,1.5l3.2,7.1l-0.2,0.1l-4.6,2.1l-6.3,2.9l0.2,0.4l1,2.1l1.9,4.2l1.7,3.7l0.8,1.7l-7.5,4.8l-0.7,0.5
		l-4.9,3.1l-0.5,0.3l-1.6,0.7l0.8,1l0.2,0.3l1.1,1.6l1.1,1.6l1.8,2.9l0,0l-3.3,2l-2.4,1.6l-0.9,1.3l-2,2.8l-2.6,3.5l-0.1,0.1
		l-10.9-7.9l-0.3-0.2l-3.7-2.7l-4-3.3l-2.2-1.7l-0.2-0.2l-0.7-0.6l-3-2.5l-1.8-1.4l-2.2-1.8l4.9-5.7l0.8-0.9l0.7-0.8l1.5-1.8
		l2.1-2.5l3.8-4.6l0.6-0.7l2.8-3.2l0.2-0.3l0.8-0.8l0.4-0.4l0.4-0.3l0.3-0.2l1.1-0.7l2.3-1.4l1-0.6l2.4-1.4l-0.1-0.2l-0.6-1.1
		l-1.1-2l-1.4-2.5l-0.2-0.3l-0.1-0.2l-1.8-3.3l-0.6-0.7l3.8-2.2l7-4.1l2.1-1.1l6.4-2.9l4.7-2l1.7-0.8l2.6-1.1l0.5-0.2l2.6-1l0.4-0.1
		l3.6-1.3l0.2-0.1l1.6-0.6l7.9-3l1.5-0.6l1.7-0.6l8.2-3.1l2.6-0.5l9-1.4l4-0.6l1-0.2l1.7-0.3l-0.7-3.3l1.2,0.4l0.3,0.1l0.8,0.5
		l12.6,9l0.2,0.1l1.6,2.2l0.2,0.2l1.6,2.2l2.3,3.1l0.9,1.3l0,0l0,0l0.4,0.6l0,0l0.4,0.6l0,0l0.5,0.7l0.9,1.4l0.1,0.1l1.5,2.3
		l1.6,2.7l0.8,1.3l0,0l0.6,1l0.7,1.2l1.1,1.8l2,3.3l0,0L371.7,208L371.7,208z"/>
	<path fill="#aaa" stroke="#000000" stroke-width="0.5" stroke-miterlimit="10" d="M169.9,256L169.9,256L168,249l-1.2-4.4l-4.1-15.4
		l-2.4-8.7l-0.1-0.6l0-0.1l0-0.4l0.3-1.4l-0.9-1.2l-0.2-0.5l-0.3-0.7l0.3-2l0.2-2.2l0.1-2.6l-0.2-3.1l0.5-3.8l0.7-5.5l-0.3-2.1
		l-0.4-1.6l-0.6-1l-0.5-1.4l-0.9-0.8l-0.5-0.5l-1.4-2.5l-0.1-0.1l0.1,0l0.2,0.1l0.9,0.7l1.5,1l2.5,1l1.5,1l3.6,2l2.2,1.3l3.8,2.4
		l6.7,3.9l5,3l1.5,0.9l1.9,1.1l4.7,2.8l6.2,3.7l6.1,3.6l0.1,0l14.1,8.4l8.8,5.4l1.3,0.8l7.7,4.7l4.1,2.5l2.3,1.5l1.3,0.9l0.2,0.1
		l-0.1,0l-0.4,0.2l0,0l-0.7,0.6l-3.5,3.7l-2.8,3l-2.5,2.7l-0.4,0.4l-0.8,0.5l-0.7,0.2l-0.7,0.1l-1.1-0.1l-3.3-0.4l-3.4-0.4l-5.2-0.6
		l-1.8-0.1l-0.6,0l-0.3,0l-0.9,0l-0.3,0l-2.1,0.2l-0.8,0.1l-7.2,0.8l-6.3,0.7l-6.2,0.7l-0.2,0l-2.7,0.3l-3.8,0.4l-1.7,0.2l-0.3,0
		l-1.6,0.2l-1.4,0.3l-0.5,0.1l-4.7,1.3L169.9,256z"/>
	<path fill="#aaa" stroke="#000000" stroke-width="0.5" stroke-miterlimit="10" d="M156.1,186.4l0.1,0.1l1.4,2.5l0.5,0.5l0.9,0.8
		l0.5,1.4l0.6,1l0.4,1.6l0.3,2.1L160,202l-0.5,3.8l0.2,3.1l-0.1,2.6l-0.2,2.2l-0.3,2l0.3,0.7l0.2,0.5l0.9,1.2l-0.3,1.4l0,0.4l0,0.1
		l0.1,0.6l2.4,8.7l4.1,15.4l1.2,4.4l1.8,6.9l0,0.1l-10.4,2.8l-5.9,1.6l-2.7,0.7l-6.3,1.7l-3.5,0.9l-1,0.3l-3,0.8l-0.3,0.2l-1.2,0.6
		l-2.9,1.4l-0.2,0.1l-3.1,1.5l-1.4,0.9l-1.3,0.9l-1.4,1.1l-1.2,1.1l-2.8,3.1l-0.8,0.8l-0.8,0.7l-1.5,0.9l-0.8,0.5l-0.4,0.2l-0.4,0.2
		l-0.5,0.2l-2.9,0.9l-1.8,0.2l-0.5,2.2l1.2,3.8l1.7,5.1l3.2,9.4l2.5,7.7l2.3,6.9l1.3,3.6l0.2,0.7l0.4,1.3l-0.6,0.1l-10.6,1.1
		l-22.2,5l0,0l-0.6-0.1l-1.5-0.2l-0.8-0.1l-0.2,0l-1.8-0.3l-0.3-0.1l-0.3-0.1l-0.3-0.1l-0.3-0.1l-3.8-0.8l-1.6-0.2l-0.3-0.1l-0.3,0
		l-0.3,0l-0.3,0l-0.3,0l-0.3,0l-0.3,0l-0.3,0l-0.3,0l-0.3,0l-0.3,0l-0.3,0l-0.3,0l-0.3,0l-0.3,0l-0.3,0l-0.3,0l-0.3,0l-0.3,0l-0.3,0
		l-0.3,0l-0.3,0l-0.3,0l-0.3,0l-0.3,0l-0.3,0l-0.3,0l-0.3,0l-2.7-0.3l-2-0.3l-0.2,0l-0.2,0l-0.1,0l-0.1,0l0,0l0,0l0,0l0,0l0,0l0,0
		l-0.1,0l-0.4,0l-8.5-1l-4.7-0.6l-0.2-1.1l-0.2-1.2l-0.2-1.1l-0.3-1.1l-0.2-0.6l-0.4-1.6l-0.4-1.6l-0.1-0.5l-0.5-2.1l-0.5-1.9
		l-0.1-0.4l-2.9-11.6l-0.3-1.2l-0.1-0.3l-0.2-0.7l-0.5-1.8l-0.1-0.6l-0.1-0.3l-0.2-1l-0.5-1.8l0,0l-0.2-0.9l-0.3-1l-0.3-1.1
		l-0.1-0.4l-0.4-1.5l-0.4-1.5l-0.3-1.2l-0.8-3l0-0.1l-0.2-0.7l-0.1-0.5l-0.2-0.8l-0.7-2.6l-0.1-0.4l-1.6-6.1l-1.3-5l-0.7-2.8
		l5.1,2.4l3.2,1.5l1.7,0.8l0.4-1.4l-2.1-5.7l-0.3-0.7l0.9-3.1l-3.2-3.2L36,249l-2.5-0.8l-0.6-0.2l-0.6-0.2l-7.9-3.8l0-0.1l0.2-1.3
		l-1.4-0.8l-0.1-0.1l-0.1-0.1l-0.1-0.1l-0.1-0.1l-0.1-0.1l-0.1-0.1l-0.1-0.2l0-0.2l0-0.2l0-0.2l0-0.3l0-0.3l-0.1-0.3l-0.1-0.3
		l-0.1-0.3l-0.1-0.3l-0.1-0.3L22,238l-0.1-0.3l-0.1-0.3l-0.1-0.3l-0.1-0.3l-0.1-0.3l-0.1-0.3l-0.1-0.3l-0.1-0.3l-0.1-0.3l-0.1-0.3
		l-0.1-0.3l-3.1-5.9l-3.3-6.8L1.6,196.1L1,194.9l15.7-3.2l1.4-0.5l1.3-1.1l1.1-1l1.6-2.7l1.3-3.3l5.4-29.5l-0.2-0.7l-2-8l1.5,0.2
		l3,0.4l3.4,0.5l2,0.2l3.6,0.5l1.4,0.2l3.3,0.6l8.9,1.5l5.8,1l4.3,0.7l2.7,0.5l6.3,1.1l8.6,1.5l7.9,2l5.7,1.4l4,1.1l3.5,1l2.6,0.8
		l9.3,2.6l5.7,1.7l3.4,1.2l4.1,1.4l4.6,1.6l1.3,0.5l2.2,0.8l0,0l1.2,1.6l1.4,1.5l0.2,0.5l0.3,0.5l0.3,0.4l0.4,0.3l0.9,0.4l2.7,1.8
		l6.8,5.5l3.6,3l0.9,0.8l1.3,1.1l0.4,0.4L156.1,186.4z"/>
	<path fill="#aaa" stroke="#000000" stroke-width="0.5" stroke-miterlimit="10" d="M262.5,253.6l-1.5,0.6l-5.5,2.4l-0.4,0.3L255,257
		l-0.3,0.3l-0.2,0.4l-0.5,2.4l-0.5,2.5l-0.8,3.9l-0.4,2.4l0,0l0.1,0.4l1.7,3.8l2.8,6l1.4,3l1.6,3.4l-5.5,2.9l-0.3,2l-1.3-0.3
		l-0.5-0.1l-0.4,0l-0.3,0l0,0.1l-0.2,1.9l-0.5,5l-0.5,5.2l-0.6,6.8l-0.5,5.1l-0.2,2.7l-0.4,3.6l-0.4,4.8l-0.3,2.3l-0.2,2.3l-1.2,0.1
		l-1.6,0.1l0,2.8l0,1.2l-5.2,1.2l-6.5,4.2l-5.4,7.5l-1,3.1l0,1.7l0,1.7l0.6,2.7l1.3,1.9l0.6,0.9l0.4,0.7l1,1.6l1.4,1.9l3.8,4.7
		l1.4,2.9l0.8,3.8l0.6,5.4l0.1,1.4l-0.4,2.5l-3.6,4.6l-3.9,3.6l-3.4,3.4l-5.9,4.9l-5.3,3.5l-4.6,2.7l-3.3,2.1l-2.4,1.7l-3.2,3
		l-2,2.5l-2.6,2.9l-2.2,2.5l-3.1,4.3l-2,2.6l-4.6,5.3l-1.5,1.8l-3.1,3l-2.2,1.6l-3.8,1.6l-0.5,0.3l-1.4,0.4l-0.9,0.3l-1.4,0.4
		l-0.5,0.1l-4.4,0.6l-3.9-0.7l-2.7-1.3l-3.2-1.4l-7.3-3.2l-3.3-0.8l-2,0l-3.1,0.6l-2.2-7.4l-0.3-0.9l-0.1-0.5l-0.2-0.5l-0.3-0.8
		l0-0.1l-0.8-2l-1.6-3.5l-0.6-2.1l0.7-0.2l0.2-0.1l0.7-0.1l2.7-0.5l0.2,0l1.8-0.4l0.8-0.2l0,0l1-0.3l0.1,0l0.5-0.1l0.5-0.1l0.2-0.1
		l0.2-0.1l0.5-0.2l0,0l0.2-0.1l0.4-0.2l0.3-0.1l0.4-0.2l0.1-0.1l0.7-0.4l0.1,0l0.1,0l0.3-0.2l0.2-0.1l0.4-0.2l0.2-0.1l0.1-0.1
		l0.2-0.1l0.1-0.1l0.3-0.2l0.2-0.1l0.3-0.3l0.3-0.2l0.3-0.3l0.1-0.1l0.2-0.3l0.1-0.1l0.3-0.4l0.1-0.1l0.1-0.2l0.1-0.1l0.2-0.5
		l0.2-0.5l0.2-0.4l0.1-0.2l0.1-0.1l0.3-0.7l0.3-0.6l0.3-0.6l0.2-0.3l0.1-0.3l0.3-0.6l0.2-0.3l0.1-0.3l0.3-0.8l0.2-0.5l0.2-0.5
		l0.2-0.4l0.1-0.1l0.3-0.7l0.4-0.8l0.1-0.2l0.3-0.6l0.4-0.8l0.2-0.6l0.2-0.5l0.2-0.6l0.2-0.4l0.2-0.3l1-2.2l0.9-2l1.3-3l0.4-0.9
		l0.8-1.3l0-0.1l0.1-0.2l0.5-0.8l0.1-0.1l0.5-1l0.2-1.1l0.3-1.8l1.7-3.8l1.4-3l0.8-3.7l0.5-2.9l0-0.2l0.5-3.4l0.7-3.8l0.3-2.9
		l0.4-9.1l0.8-12l0-0.6l-2.2-0.4l-11-1.7l-1.9-0.3l-14.1-2.3l-3.2-0.5l0.5-3l1.7-9.9l0,0l0.1-0.5l-1.5,0.2l-11.1,1.2l-3.9,0.4
		l-0.4-1.3l-0.2-0.7l-1.3-3.6l-2.3-6.9l-2.5-7.7l-3.2-9.4l-1.7-5.1l-1.2-3.8l0.5-2.2l1.8-0.2l2.9-0.9l0.5-0.2l0.4-0.2l0.4-0.2
		l0.8-0.5l1.5-0.9l0.8-0.7l0.8-0.8l2.8-3.1l1.2-1.1l1.4-1.1l1.3-0.9l1.4-0.9l3.1-1.5l0.2-0.1l2.9-1.4l1.2-0.6l0.3-0.2l3-0.8l1-0.3
		l3.5-0.9l6.3-1.7l2.7-0.7l5.9-1.6l10.4-2.8l5.5-1.4l4.7-1.3l0.5-0.1l1.4-0.3l1.6-0.2l0.3,0l1.7-0.2l3.8-0.4l2.7-0.3l0.2,0l6.2-0.7
		l6.3-0.7l7.2-0.8l0.8-0.1l2.1-0.2l0.3,0l0.9,0l0.3,0l0.6,0l1.8,0.1l5.2,0.6l3.4,0.4l3.3,0.4l1.1,0.1l0.7-0.1l0.7-0.2l0.8-0.5
		l0.4-0.4l2.5-2.7l2.8-3l3.5-3.7l0.7-0.6l0,0l0.4-0.2l0.1,0l2.2,1.8l1.8,1.4l3,2.5l0.7,0.6l0.2,0.2l2.2,1.7l4,3.3l3.7,2.7
		L262.5,253.6z"/>
	<path id="3541" fill="#00f" stroke="#000000" stroke-width="0.5" stroke-miterlimit="10" d="M340.9,338.5l-0.1,0.2l-6.1,9.8l0,0.1l-2.8,4.6
		l-3.6,5.8l-0.7,1.2l-0.8,1.2l-3.1,5l-0.7,1.2l-2.8,4.5l-4.5,7.3l-0.1,0.1l-4,6.4l-1.8,2.7l-0.1,0.1l-0.3,0.5l-1-0.4l-2.5-1.1
		l-2.7-1.6l-4.5-5l-0.9-1.2l-6.2-11.3l-10.6-18.4L278,347l-11.9-10.4l-7.1-2.9l-6,0l-4.3,0.1l-3.3,0.1l-0.5,0.1l0-1.2l0-2.8l1.6-0.1
		l1.2-0.1l0.2-2.3l0.3-2.3l0.4-4.8l0.4-3.6l0.2-2.7l0.5-5.1l0.6-6.8l0.5-5.2l0.5-5l0.2-1.9l0-0.1l0.3,0l0.4,0l0.5,0.1l1.3,0.3l0.3-2
		l5.5-2.9l-1.6-3.4l-1.4-3l-2.8-6l-1.7-3.8l-0.1-0.4l0,0l0.4-2.4l0.8-3.9l0.5-2.5l0.5-2.4l0.2-0.4l0.3-0.3l0.2-0.2l0.4-0.3l5.5-2.4
		l1.5-0.6l10.9,7.9l0.1-0.1l2.6-3.5l2-2.8l0.9-1.3l2.4-1.6l3.3-2l0,0l1.1,1.7l4.2,6.7l3.7,5.9l3,5.1l2.4,4.1l2,3.5l0,0l2.1,3.8
		l1.7,3.3l0,0l1.7,2.9l1.3,1.9l1.6,2.7l2.5,3.9l1.5,2.2l1,1.4l1.1,1.6l1.6,2.5l0.4,0.7l-3.9,1.2l-7.4,2.4l0,0l0.3,1.1l0.1,0.4
		l1.5,4.5l0,0.4l-0.1,0.2l-0.1,0.2l-0.5,0.7l0,0.1l1.3,0.6l4.1,3.4l0.6,0.5l1.2,1.4l1.7,1.9l2,2.3l0,0l0.4,0.5l1.3,2l1,1.6l0.4,0.6
		l2,3.1l2.3,3.6l0.3,0.6l1.2,1.7l0.9,1.1l0.3,0.3l0.3,0.3l0.9,0.5l2.9-0.8l3.9-0.9l2.4-0.6l1.1-0.3l0.3-0.1L340.9,338.5z"/>
	<path id="3540" fill="#00f" stroke="#000000" stroke-width="0.5" stroke-miterlimit="10" d="M339.7,211.7l-0.3,4.1l-0.5,7.5l-0.4,4.8
		l-0.6,7.1l-0.1,1.4l-0.3,4.1l-0.4,3.5l-0.1,1.1l-0.1,0.8l-0.4,5.3l-0.4,4.8l-0.1,2.4l-0.5,7.1l0,0.1l-1,11.6l-0.5,6.3l-0.2,4.3l0,3
		l2.8,9.5l2.2,6.8l1.9,5.4l0.9,3l1.1,4l0.6,1.6l0.1,0.3l1.4,4.1l0.1,0.5l0.1,0.5l0.1,0.7l0.1,1.9l0,0.4l0.1,1.8l-2,4l-0.8,1.7
		l-0.8,0.8l-0.8,0.3l-0.5,0.1l-0.3,0.1L339,339l-2.4,0.6l-3.9,0.9l-2.9,0.8l-0.9-0.5l-0.3-0.3l-0.3-0.3l-0.9-1.1l-1.2-1.7l-0.3-0.6
		l-2.3-3.6l-2-3.1l-0.4-0.6l-1-1.6l-1.3-2l-0.4-0.5l0,0l-2-2.3l-1.7-1.9l-1.2-1.4l-0.6-0.5l-4.1-3.4l-1.3-0.6l0-0.1l0.5-0.7l0.1-0.2
		l0.1-0.2l0-0.4l-1.5-4.5l-0.1-0.4l-0.3-1.1l0,0l7.4-2.4l3.9-1.2l-0.4-0.7l-1.6-2.5l-1.1-1.6l-1-1.4l-1.5-2.2l-2.5-3.9l-1.6-2.7
		l-1.3-1.9l-1.7-2.9l0,0l-1.7-3.3l-2.1-3.8l0,0l-2-3.5l-2.4-4.1l-3-5.1l-3.7-5.9l-4.2-6.7l-1.1-1.7l-1.8-2.9l-1.1-1.6l-1.1-1.6
		l-0.2-0.3l-0.8-1l1.6-0.7l0.5-0.3l4.9-3.1l0.7-0.5l7.5-4.8l-0.8-1.7l-1.7-3.7l-1.9-4.2l-1-2.1l-0.2-0.4l6.3-2.9l4.6-2.1l0.2-0.1
		l-3.2-7.1l3.7-1.5l7.3-3.2l0.2-0.1l1.7,3.7l0,0.1l2.6-1.2l5.9-2.6l0,0l5,11.3l0.2,0.4l1.3-0.4l5-1.5l8.4-2.3L339.7,211.7z"/>
	<path id="3539" fill="#00f" stroke="#000000" stroke-width="0.5" stroke-miterlimit="10" d="M386.5,367.8l2.1,2.2l3,3l2.9,2.9l1.8,2l0.6,0.7
		l0,0.1l-1.5-0.5l-2-0.9l-2.3-1.3l-0.6,6.5l-0.3,2.7l-0.4,3.9l0,2.4l0,1.5l-0.1,7l0,2.2l0,0.2l-0.1,12.3l0,2.5l0,2l-0.1,2.8
		l-0.9,4.3l-0.9,4.3l-0.2,0.9l-0.8,4.2l-0.1,1.5l0.2,0.9l0.1,0.5l-0.1,0l-7.6,0.9l-2,0.2l-7.6,0.9l-0.7,0.1l-2.6,0.2l-4.6,0.4l0-0.2
		l-1.1-26.1l-1.2-5.5l-1.6-4.6l-2.4-4.4l-0.9-1l-1.6-2.8l-0.8-1l-3.3-2.1l-1.3-0.9l-2.2-0.6l-4.8-1.3l-2.1-0.3l-3.6,0.1l-2.8,0.5
		l-4.9,0.4l-2.6,0.5l-6.9-0.2l-4.2-0.9l-3.8-1.7l0.3-0.5l0.1-0.1l1.8-2.7l4-6.4l0.1-0.1l4.5-7.3l2.8-4.5l0.7-1.2l3.1-5l0.8-1.2
		l0.7-1.2l3.6-5.8l2.8-4.6l1.3,0.7l5.1,2.7l0.2,0.1l2.7,1.5l2.8,1.4l0.8,0.3l2.2,0.9l5.6,1.3l2.1,0.7l3.6,1.2l8.1,2.6l0.1,0l0.1-0.3
		l0.3-0.5l0.7-0.6l0.4-0.4l0.2-0.2l0.4-0.4l1.4,0.9l3.4,1.9l1.3,0.7l3.1,1.6l2.4,1.2l0.3,0.1h0.1l0.2-0.1l0.5-0.4l0.1-0.1l2,2.2
		L386.5,367.8z"/>
	<path id="3538" fill="#aaa" stroke="#000000" stroke-width="0.5" stroke-miterlimit="10" d="M441.3,414.3l-0.7-0.5l-1.5-1.1l-5.3-3.8
		l-2.2-1.6l-8.2-5.7l-0.2-0.1l-2.7-1.5l-2.2-1.3l-0.3-0.2l-2.4-1.2l-1.1-0.5l-1.9-0.9l-21.9-10.6l-0.3,0l-0.3,0l0,0l0.3-2.7l0.6-6.5
		l2.3,1.3l2,0.9l1.5,0.5l0-0.1l-0.6-0.7l-1.8-2l-2.9-2.9l-3-3l-2.1-2.2l2.2-2l0.2-0.2l1.1-1.1l0.3-0.3l0.6-0.7l0.9-1.7l1.2-3.3
		l0.3-0.8l0-0.1l-3-1.1l0,0l3.9-11l4.1-11.3l4.6,2.4l2.3,1.2l6.4,3.4l3.3,1.8l5.9,3.1l9.2,4.8l0,0l0.3,0.1l4.9,2.6l0.5,0.3l4.5,2.4
		l4.6,2.4l0.2,0.1l6,3.2l2.9,1.6l7.5,3.9l-0.7,1l-3.9,5.5l-0.7,1l-3,4.3l-0.1,0.1l-4.6,6.5l-1.8,2.5l-8.7,12.4l-0.1,0.1l5.7,4.6
		l2.9,2.4L441.3,414.3L441.3,414.3z"/>
	<path id="3537" fill="#00f" stroke="#000000" stroke-width="0.5" stroke-miterlimit="10" d="M435.2,353.6l-4.9-2.6l-0.3-0.1l0,0l-9.2-4.8
		l-5.9-3.1l-3.3-1.8l-6.4-3.4l-2.3-1.2l-4.6-2.4l-4.1,11.3l-3.9,11l0,0l3,1.1l0,0.1l-0.3,0.8l-1.2,3.3l-0.9,1.7l-0.6,0.7l-0.3,0.3
		l-1.1,1.1l-0.2,0.2l-2.2,2l-0.1-0.2l-2-2.2l-0.1,0.1l-0.5,0.4l-0.2,0.1h-0.1l-0.3-0.1l-2.4-1.2l-3.1-1.6l-1.3-0.7l-3.4-1.9
		l-1.4-0.9l-0.4,0.4l-0.2,0.2l-0.4,0.4l-0.7,0.6l-0.3,0.5l-0.1,0.3l-0.1,0l-8.1-2.6l-3.6-1.2l-2.1-0.7l-5.6-1.3l-2.2-0.9l-0.8-0.3
		l-2.8-1.4l-2.7-1.5l-0.2-0.1l-5.1-2.7l-1.3-0.7l0-0.1l6.1-9.8l0.1-0.2l0.8-0.3l0.8-0.8l0.8-1.7l2-4l-0.1-1.8l0-0.4l-0.1-1.9
		l-0.1-0.7l-0.1-0.5l-0.1-0.5l-1.4-4.1l-0.1-0.3l-0.6-1.6l-1.1-4l-0.9-3l-1.9-5.4l0.6-0.7l0.5-0.4l0.5-0.4l0.8-0.2l0.8,0.1l1,0.2
		l2.7,1.9l1.2,0.6l2.2,0.9l2.8,0.5l2.2,0l1.8,0.2l4.6,1.3l6.8,1.9l3.8,0.8l3.5,0.5l4.6,0.4l3.5,1.1l0,0l0.2-1.8l0.4-2.9l1-6.7
		l0.3-1.4l0-0.1l2.2-0.7l4.3-1.2l0,0l0.9-0.3l0,0l4.3-1.2l2.5-0.7l0.2-0.1l6.2-1.8l7.7-2.2l10.3-3l7.5-2.2l2.8-0.8l0.7-0.2l0.1,0
		l1.9-0.6l4.6-1.4l12.2,15.1l1.9,2.4l1.3,1.7l0.4,0.5l-0.5,0.4l-0.1,0.1l-0.1,0.1l-0.1,0.2l-0.2,0.8l-0.3,2l-1.2,7.1l-1.8,10.8
		l0,0.1l-1.3-0.2l-0.1,0l0,0l-4.6,7.6l-3.1,5.2l-1.3,2.2l-3.1,5.1L435.2,353.6L435.2,353.6z"/>
	<path id="3536" fill="#00f" stroke="#000000" stroke-width="0.5" stroke-miterlimit="10" d="M371.7,208l0.4,0.6l0.4,0.6l1.8,2.1l1.1,1.3
		l1.9,2.2l1.1,1.2l0.5,0.5l0.2,0.3l1,1.2l0.6,0.7l0.8,0.9l0.9,1l1.2,1.4l0.5,0.5l0.6,0.7l0.9,1l1.8,2l0.6,0.7l0.2,0.2l0.3,0.3
		l0.3,0.4l2,2.3l2.5,2.9l0.3,0.3l0.1,0.1l0.4,0.4l1.8,2.1l0.7,0.8l0.7,0.8l0.8,0.9l0.8,0.9l0.7,0.9l0.7,0.8l0.7,0.8l0.9,1l1.8,2
		l0.2,0.2l0.2,0.2l0.3,0l0.2,0l1,0.1l2.2,0.3l0,0l2.4,0.3l0.3,0l1.8,0.2l1.4,1.5l1.6,1.7l0.1,0.1l6.9,7.5l0.2,0.2l4.9,5.2l0.3,0.4
		l0.1,0.1l0.2,0.3l0.1,0.1l0.3,0.4l3.7,4l3.8,4.1l-0.2,0.1l-3.5,2l-1.2,0.7l1.2,1.6l1.8,2.1l0.6,0.7l0.4,0.5l2.9,3.3l1,1.1l1.2,1.4
		l0.7,0.8l0,0l0,0l-4.6,1.4l-1.9,0.6l-0.1,0l-0.7,0.2l-2.8,0.8l-7.5,2.2l-10.3,3l-7.7,2.2l-6.2,1.8l-0.2,0.1l-2.5,0.7l-4.3,1.2l0,0
		l-0.9,0.3l0,0l-4.3,1.2l-2.2,0.7l0,0.1l-0.3,1.4l-1,6.7l-0.4,2.9l-0.2,1.8l0,0l-3.5-1.1l-4.6-0.4l-3.5-0.5l-3.8-0.8l-6.8-1.9
		L356,310l-1.8-0.2l-2.2,0l-2.8-0.5l-2.2-0.9l-1.2-0.6l-2.7-1.9l-1-0.2l-0.8-0.1l-0.8,0.2l-0.5,0.4l-0.5,0.4l-0.6,0.7l-2.2-6.8
		l-2.8-9.5l0-3l0.2-4.3l0.5-6.3l1-11.6l0-0.1l0.5-7.1l0.1-2.4l0.4-4.8l0.4-5.3l0.1-0.8l0.1-1.1l0.4-3.5l0.3-4.1l0.1-1.4l0.6-7.1
		l0.4-4.8l0.5-7.5l0.3-4.1l0.5-6.1l1,0l5,0.4l4.4,0.4l4.9,0.4l6.4,0.5l5.3,0.4l4.4,0.3L371.7,208z"/>
	<path id="3535" fill="#aaa" stroke="#000000" stroke-width="0.5" stroke-miterlimit="10" d="M386.8,438.5l-0.1-0.5l-0.2-0.9l0.1-1.5l0.8-4.2
		l0.2-0.9l0.9-4.3l0.9-4.3l0.1-2.8l0-2l0-2.5l0.1-12.3l0-0.2l0-2.2l0.1-7l0-1.5l0-2.4l0.4-3.9l0,0l0.3,0l0.3,0l21.9,10.6l1.9,0.9
		l1.1,0.5l2.4,1.2l0.3,0.2l2.2,1.3l2.7,1.5l0.2,0.1l8.2,5.7l2.2,1.6l5.3,3.8l1.5,1.1l0.7,0.5l0.3,0.3l6,4.8l4.2,3.3l8.4,6.7
		l-1.5,0.3l-3.7,0.4l-4.6,0.7l-6.2,0.7l-4,0.5l-1.3,0.2l-1.8,0.2l-2.6,0.3l-7.3,0.9l-1.8,0.2l-5.5,0.7l0,0l-7.3,0.9l-12.8,1.5
		l-2.3,0.2l-4,0.5L386.8,438.5z"/>
	<path id="3534" fill="#aaa" stroke="#000000" stroke-width="0.5" stroke-miterlimit="10" d="M364.6,502.7l0-0.4l0.3-2.6l0.1-4.5l-1-12.6
		l-1-6.9l-0.1-0.5l0-0.2l0-0.4l-0.1-1.4l-1.3-18.6l0-13.3l4.6-0.4l2.6-0.2l0.7-0.1l7.6-0.9l2-0.2l7.6-0.9l0.1,0l6.7-0.8l4-0.5
		l2.3-0.2l12.8-1.5l7.3-0.9l0,0l5.5-0.7l1.8-0.2l7.3-0.9l2.6-0.3l1.8-0.2l1.3-0.2l4-0.5l6.2-0.7l4.6-0.7l3.7-0.4l1.5-0.3l0,0
		l0.2,0.2l1,0.8l0,0l-1.8,0.5l-1.7,0.5l-0.7,0.2l-1.1,0.5l-1.5,1.1l-0.9,0.5l-1.4,0.9l-5.9,2.7l-6.5,3l-1.5,0.7l-4.9,2.3l-0.1,0
		l-0.6,1.1l-0.1,0.3l-0.7,0.8l-2,2.4l-4.1,4.7l-4.3,4.9l-0.5,0.6l-0.1,0.1l-0.9,1.1l-1.9,2.2l-0.5,0.6l-1.5,1.7l-1.6,1.9l-1.6,1.9
		l-1.5,1.7l-3.7,4.2l-1,1.1l-2.3,2.6l-2.4,2.7l-6.1,7.3l0,0l-6.5,8l-2,2.4l-0.7,0.7l-0.2,0.3l-0.5,0.2l-2.8,0.6l-10.5,2.3l-2.3,0.6
		L364.6,502.7z"/>
	<path id="3533" fill="#aaa" stroke="#000000" stroke-width="0.5" stroke-miterlimit="10" d="M414.4,570.7l-0.9-0.1l-8.7-1.3l-9.6-2.1
		l-1.6-0.3l-5.7-3.3l-3.5-2.4l-6.4-4.9l-6.7-5.1l-3.6-4.6l-4.6-8.7l-1.3-3.2l-0.4-0.9l-0.4-3.8l0.6-3.9l0.4-5.6l0.2-2.5l2-8.5
		l0.7-6.6l6.1-0.6l2.3-0.6l10.5-2.3l2.8-0.6l0.5-0.2l0.2-0.3l0.7-0.7l2-2.4l6.5-8l0,0l6.1-7.3l2.4-2.7l2.3-2.6l1-1.1l3.7-4.2
		l1.5-1.7l1.6-1.9l1.6-1.9l1.5-1.7l0.5-0.6l1.9-2.2l0.9-1.1l0.1-0.1l0.5-0.6l4.3-4.9l4.1-4.7l2-2.4l0.7-0.8l0.1-0.3l0.6-1.1l0.1,0
		l4.9-2.3l1.5-0.7l6.5-3l0.2,0.1l7.9,6.4l11.7,9.4l0,0l0,0.1l-0.2,0.3l-3.2,4l-0.6,0.7l-0.8,1l-0.9,1.1l-2.5,3.1l-2.1,2.6l-3.6,4.4
		l-1,1.3l-3.5,4.4l0,0l-1.1,1.3l-0.9,1.2l-0.9,1.1l-1.3,1.7l-0.4,0.5l0,0l-4.6,5.7l-0.7,0.9l-3.9,4.9l-4.8,6.1l-6.4,8.2l0,0
		l-6.4,8.2l-3.3,4.2l-1.2,1.5l-0.3,0.4l-1.7,2.2l-2.5,3.3l-1.4,1.8l-3.2,4.1l3.2,2.4l2.7,2l5.9,4.5l2.2,1.2l-0.4,2.3l-0.3,2.2
		l-0.3,2.3l0.2,0.9l0.8,2.1l0.3,0.6l0.1,0.8l-0.1,0.9l-0.1,0.4l-0.1,0.4l-0.4,1.3l-0.2,0.7l-0.4,1.3l-0.6,2.1l-0.4,4.5L414.4,570.7z
		"/>
	<path id="3532" fill="#aaa" stroke="#000000" stroke-width="0.5" stroke-miterlimit="10" d="M507.9,504.8l-12.5,8.4l-14.9,10l-8.5,5.7
		l-3.9,2.6L460,537l-8.9,6l-17.3,11.6l-1.3,1.1l-1.3,1.1l-1.6,1.5l-0.9,0.8l-0.9,0.8l-0.7,0.7l-1.2,1.2l-4.5,4.5l-1.7,1.4l-2.6,2.3
		l-0.5,0.4l-0.4,0.6l-0.9-0.1l-0.6-0.1l-0.3,0l0.5-4.7l0.4-4.5l0.6-2.1l0.4-1.3l0.2-0.7l0.4-1.3l0.1-0.4l0.1-0.4l0.1-0.9l-0.1-0.8
		l-0.3-0.6L416,551l-0.2-0.9l0.3-2.3l0.3-2.2l0.4-2.3l-2.2-1.2l-5.9-4.5l-2.7-2l-3.2-2.4l3.2-4.1l1.4-1.8l2.5-3.3l1.7-2.2l0.3-0.4
		l1.2-1.5l3.3-4.2l6.4-8.2l0,0l6.4-8.2l4.8-6.1l3.9-4.9l0.7-0.9l4.6-5.7l0,0l0.4-0.5l1.3-1.7l0.9-1.1l0.9-1.2l1.1-1.3l0,0l3.5-4.4
		l1-1.3l3.6-4.4l2.1-2.6l2.5-3.1l0.9-1.1l0.8-1l0.6-0.7l3.2-4l0.2-0.3l0-0.1l3,2.4l8.2,6.6l4.2-6l10.2,8.1l3.8,3l-4.8,6l-3.7,4.7
		l-0.9,0.9l-1,1.1l-1.5,1.7l-1.7,1.9l-0.4,0.3l-0.3,0.2l0.1,0l3.3,2.6l2.9,2.3l2.4,1.9l3.8,2.9l3.5,2.9l3.6,2.7l0,0l6.3,4.8
		L507.9,504.8z"/>
	<path id="3521.02" fill="#aaa" stroke="#000000" stroke-width="0.5" stroke-miterlimit="10" d="M745.3,398.7l-0.7,1l-4.8,7.2l-0.9,1.3
		l-11.9,17.7l-10.2,15.2l-2.8,4.2l-3.9,20.6l-2.1,2.7l-0.5,1l-0.7,1.3l-0.2,0.4l-9.4-0.9l-15.2-1.4l0-0.2l0.1-1.5l0.2-0.3l1.2-2
		l0.3-1.1l0-1.8l-0.6-2.6l-0.8-0.9l-1,0l-4-0.3l0,0l0.4-2.4l0.6-3.6l1-7.7l1.5-7.5l1.3-6.8l1.4-8.2l1.3-7.6l1.3-7.5l0.3-1.5l1-6.1
		l1.3-7.5l0-0.1l-13.8-2.3l-5.2-0.9l-0.9-0.2l-4.2-0.8l-0.1,0l-4.5-0.7l-9.2-1.5l-13.7-2.3l0.4-2.2l0.9-5.3l0-0.1l0.2-0.9l1.1-6.6
		l0-0.1l0.4-2.1l1-5.7l1.3-7.8l1.1-6.5l0.2-1l7.1,1.2l6.5,1l0,0l0.2-1.1l0.4-2.3l0.5-2.7l0,0l9.7,6.8l3.1,2.2l3.6,2.2l3.5,2.2
		l2.8,1.6l0.7,0.4l1.6,0.9l4.5,2.4l3.6,1.7l3,1.9l2.6,1.9l2.6,2.6l4.1,3.6l1.5,1.4l0.7,0.7l1.4,0.9l0.5,0.3l11.4,7.3l3.7,2.4
		l1.2,0.8l3.7,2.4l7.2,4.3l0.6,0.3l0.9,0.8l7.3,4.8L745.3,398.7z"/>
	<path id="3531.02" fill="#ff0" stroke="#000000" stroke-width="0.5" stroke-miterlimit="10" d="M416.3,571l0.4-0.6l0.5-0.4l2.6-2.3l1.7-1.4
		l4.5-4.5l1.2-1.2l0.7-0.7l0.9-0.8l0.9-0.8l1.6-1.5l1.3-1.1l1.3-1.1L451,543l8.9-6l8.1-5.5l3.9-2.6l8.5-5.7l14.9-10l12.5-8.4
		l20.1-13.4l7.6-5.1l4.9-3.3l0.3-0.2l6.8-4.6l6.4-4.3l9.9-6.7l6.8-4.7l5.5-3.8l1.3-1.1l0.7-0.7l0.1-0.1l3,0.3l3.9,0.2l3.7,0.3
		l4.8,0.5l6.1,0.6l9,0.9l7.9,0.8l7.9,0.8l2.8,0.8l0.6,0.1l0.5,0.1l3.8,0.7l7,1.6l2,0.3l5.5,0.5l4.7,0.5l15.1,1.4l2.6,0.3l1.3,0.1
		l5.7,0.6l3.7,0.4l2,0.2l15.2,1.4l9.4,0.9l-11.6,22l-9.1,9.2l-2.4,7.3l-12.4,4.8l-7.2,2.6l-6.2,2.3l-13.2,5.1l-28.4,11l-29,11.2
		l-12.5,3l-0.2,0l-50.2,12.1l-4.9,0.9l-5.3,0.9l-5,0.9l-11.7,1.6l-38.8,3.4l-12.7,0.9l-6.1,0.8l-7.4,0.3l-10.6,0.3L416.3,571z"/>
	<path id="3521.01" fill="#aaa" stroke="#000000" stroke-width="0.5" stroke-miterlimit="10" d="M745.3,398.7l-1.6-1l-7.3-4.8l-0.9-0.8l-0.6-0.3
		l-7.2-4.3l-3.7-2.4l-1.2-0.8l-3.7-2.4l-11.4-7.3l-0.5-0.3l-1.4-0.9l-0.7-0.7l-1.5-1.4l-4.1-3.6l-2.6-2.6l-2.6-1.9l-3-1.9l-3.6-1.7
		l-4.5-2.4l-1.6-0.9l-0.7-0.4L678,354l-3.5-2.2l-3.6-2.2l-3.1-2.2l-9.7-6.8l0,0l-4.7-3.2l-2.9-1.9l0.6-1.3l0.5-1.1l0.2-0.3l0.2-0.2
		l0.2-0.2l0.2-0.2l0.2-0.2l0.2-0.2l0.3-0.2l0.3-0.2l0.3-0.1l0.3-0.1l0.3-0.1l0.3-0.1l0.2,0l0.2,0l0.2,0l0.2,0l0.3-0.1l0.3-0.1
		l0.3-0.1l0.3-0.1l0.3-0.1l0.1-0.1l3.6,0.3l0.3,0l0.1,0l0.2,0l0.3,0l0.5-0.1l0.5-0.2l0.2-0.1l0.1-0.1l0.2-0.2l0.2-0.2l0.1-0.1
		l0.1-0.1l0.1,0l0.1,0l0.1,0l0.1,0l0.1,0l0.1,0l0.1,0.1l0.1,0.1l0.3,0.2l0.3,0.3l0.2,0.1l0.2,0.1l0.1,0.1l0.1,0.1l0.1,0.1l0,0.1
		l0.1,0.2l0.1,0.2l0.1,0.2l0.3,0.4l0.1,0.1l0.6,0.5l0.4,0.3l0.1,0l0.2,0l0.6-0.1l0.3-0.1l0.3-0.1l0.2-0.1l0.1,0l0.2-0.1l0.1-0.1
		l0.2-0.1l0.1-0.1l0.3-0.2l0.3-0.3l0.4-0.4l0.2-0.2l0.4-0.4l0.4-0.4l0.5-0.5l0.3-0.4l0.1-0.2l0.2-0.2l0.2-0.1l0.2-0.1l0.1,0l0.3-0.1
		l0.2,0l0.2,0l0.3,0l0.3,0l0.4,0l0.3,0l0.3,0l0.3,0.1l0.3,0.1l0.2,0.1l0.2,0.1l0.4,0.2l0.2,0.1l0.2,0.1l0.3,0.2l0.2,0.1l0.1,0.1
		l0.1,0.1l0.1,0.1l0.4,0.4l0.4,0.4l0.4,0.4l0.3,0.3l0.3,0.3l0.2,0.2l0.5,0.5l0.5,0.5l0.3,0.3l0.3,0.2l0.3,0.3l0.3,0.2l0.3,0.2
		l0.2,0.2l0.3,0.3l0.2,0.2l0.1,0.1l0.1,0.1l0.4,0.1l0.2,0.1l0.3,0.1l0.3,0.1l0.3,0l0.2,0l0.2,0l0.4,0l0.2,0l0.4,0l0.4,0l0.4,0l0.4,0
		l0.4,0l0.1,0l0.3,0l0.4-0.1l0.4-0.1l0.2,0l0.4-0.1l0.3,0l0.5-0.1l0.5,0l0.5-0.1l0.4-0.1l0.4-0.1l0.5-0.2l0.3-0.1l0.2-0.1l0.2-0.1
		l0.5-0.3l0.4-0.2l0.6-0.3l0,0l0.3-0.3l0.3-0.3l0.3-0.3l0.4-0.3l0.4-0.4l0.2-0.1l0.3-0.3l0.3-0.3l0.4-0.2l0.3-0.2l0.3-0.1l0.2-0.1
		l0.3-0.1l0.2-0.1l0.3-0.1l0.2-0.1l0.2,0l0.2,0l0.1,0l0.1,0l0.1,0l0.1,0.1l0.1,0.1l0.1,0.1l0.2,0.2l0.3,0.3l0.2,0.2l0.3,0.3l0.3,0.3
		l0.4,0.4l0.3,0.3l0.4,0.5l0.3,0.4l0.3,0.4l0.2,0.3l0.2,0.3l0.1,0.2l0.2,0.2l0.2,0.3l0.2,0.3l0.3,0.4l0.3,0.3l0.1,0.2l0.1,0.1
		l0.2,0.3l0.2,0.3l0.2,0.3l0.3,0.5l0.4,0.7l0.1,0.2l0.2,0.4l0.1,0.3l0.1,0.3l0.1,0.4l0.1,0.4l0.1,0.4l0,0.1l0.2,0.4l0.1,0.3l0.1,0.3
		l0.2,0.3l0.1,0.2l0.2,0.2l0.2,0.2l0.2,0.2l0.2,0.2l0.1,0.1l0.1,0.1l0.2,0.2l0.3,0.2l0.2,0.2l0.2,0.1l0.3,0.3l0.3,0.2l0.3,0.3
		l0.3,0.3l0.2,0.2l0.2,0.2l0.1,0.1l0.3,0.2l0.3,0.2l0.4,0.2l0.4,0.2l0.2,0.1l0.2,0.1l0.4,0.1l0.2,0l0.3,0l0.2,0l0.2,0l0.4,0l0.4-0.1
		l0.2,0l0.2-0.1l0.3-0.1l0.3-0.1l0.2-0.1l0.1-0.1l0.3-0.2l0.2-0.1l0.1,0l0.2-0.2l0.3-0.2l0.6-0.5l0.2-0.2l0.4-0.3l0.5-0.4l0.2-0.2
		l0,0l0.3-0.3l0.2-0.2l0.1-0.1l0.1-0.1l0.4-0.3l0.7-0.5l0.7-0.5l0.6-0.5l0.6-0.5l0.3-0.2l0.4-0.3l0.7-0.5l0.4-0.2l0.4-0.2l0.3-0.2
		l0.2-0.1l0.6-0.1l1.4,4.5l0.7,2.1l9.1,1.7l1.6,0.3l3.9,0.8l0.6,0.1l0.2,0l1,0.2l0.3,0.1l0.2,0l8.7,1.8l9.4,1.6l2,0.3l4.9,0.8
		l4.4,0.8l19.2,25.3l3.6,5.5l-3.3,0.2l-1.5,0.1l-26.5,1.3l-1.5,0h-1.1l-9.7,0.1l-0.8,0l0,0l-1.3,0l-2.6,3.9l-0.7,1l-1.5,2.2
		l-2.5,3.8L745.3,398.7z"/>
	<path id="3530" fill="#aa0" stroke="#000000" stroke-width="0.5" stroke-miterlimit="10" d="M466.3,453.1L466.3,453.1l-11.7-9.4l-7.9-6.4
		l-0.2-0.1l5.9-2.7l1.4-0.9l0.9-0.5l1.5-1.1l1.1-0.5l0.7-0.2l1.7-0.5l1.8-0.5l0,0l-1-0.8l-0.2-0.2l0,0l-8.4-6.7l-4.2-3.3l-6-4.8
		l-0.3-0.3l0,0l5.1-6.3l-2.9-2.4l-5.7-4.6l0.1-0.1l8.7-12.4l1.8-2.5l4.6-6.5l0.1-0.1l3-4.3l0.7-1l3.9-5.5l0.7-1l0.3,0.1l0.5,0.3
		l4.2,2.2l3.9,2l1.2,0.7l5.7,3l7.7,4.1l8.1,4.3l0.1,0l4,2.1l4.8,2.5l2.1,1.1l5.8,3l-1.9,3.7l-1.9,3.7l-1.6,3.2l-0.9,1.8l-2.6,5
		l-2.7,5.2l-0.1,0.3l-2.6,5.1l-4.3,8.5l-0.1,0.1l-0.2,0.5l-0.2,0.3l-6,7.9l-0.2,0.2l-4-3.2l-1.5,1.8l-3.5,4.3l-4.6,5.7l-2.1,2.6
		L466.3,453.1z"/>
	<path id="3529" fill="#aaa" stroke="#000000" stroke-width="0.5" stroke-miterlimit="10" d="M487.8,327.7l6.3,6.9l0.2,0.2l2.6,0.4l6.3,1.1
		l0.8,0.1l0.8,0.1l3.4,0.6l8.4,1.4l-1.4,2.6l-3.3,6.3l-1.8,3.4l-0.5,0.9l-0.8,1.5l-6.8,13.1l-1.4,2.6l-2.6,4.9l-5.2,10.1l0,0
		l-8.1-4.3l-7.7-4.1l-5.7-3l-1.2-0.7l-3.9-2l-4.2-2.2l-0.5-0.3l-0.3-0.1l-7.5-3.9l-2.9-1.6l-6-3.2l-0.2-0.1l-4.6-2.4l-4.5-2.4
		l-0.5-0.3l0,0l3.6-6l3.1-5.1l1.3-2.2l3.1-5.2l4.6-7.6l0,0l0.1,0l1.3,0.2l0-0.1l1.8-10.8l1.2-7.1l0.3-2l0.2-0.8l0.1-0.2l0.1-0.1
		l0.1-0.1l0.5-0.4l10.1,12.5l7.7,9.5l0.1,0l0.7,0l3.3-0.1l1,0l1.4,0l0.3,0l2-0.1l0.8,0l1,0l0.9,0l0.4,0l1.1,0L487.8,327.7z"/>
	<path id="3528" fill="#aaa" stroke="#000000" stroke-width="0.5" stroke-miterlimit="10" d="M544.7,390l-6.1-6.7l-5.6-6.1l-5-5.4l-0.7-0.8l-1-1.1l-4.4-4.8l-4.8-5.3l-0.1-0.1l-2.4,4.7l-3.5,6.8l-5.7,11l-3.4,6.6l0,0l-4.8-2.5l-4-2.1l-0.1,0l0,0l5.2-10.1l2.6-4.9l1.4-2.6l6.8-13.1l0.8-1.5l0.5-0.9l1.8-3.4l3.3-6.3l1.4-2.6l0.2,0l8.1,1.4l0.6,0.1l6.7,1.2l0.1,0l0.2,0l7.1,1.2l6.9,1.1l2.3,0.4l7.8,1.4l-0.8,3l-1.2,4.6l-1.9,6.8l-0.4,1.2l-1.2,4.4l-1.5,5.2l-1.6,6.3l-1,3.4l-2.2,8.1l-0.4,1.3L544.7,390L544.7,390z"/>
	<path id="3527" fill="#aaa" stroke="#000000" stroke-width="0.5" stroke-miterlimit="10" d="M602.1,353.2l-0.4-0.1l-3.4-0.6l-0.3,0l-1.2-0.2
		l-4-0.7l-0.2,0l-3.1-0.5l-3.4-0.6l-1.5-0.3l-6-1l-1.1-0.2l-3.5-0.6l-3.6-0.6l-1.6-0.3l-12.1-2l-0.1,0l-7.8-1.4l-2.3-0.4l-6.9-1.1l-7.1-1.2l-0.2,0l-0.1,0l-6.7-1.2l-0.6-0.1l-8.1-1.4l-0.2,0l-8.4-1.4l-3.4-0.6l-0.8-0.1l-0.8-0.1l-6.3-1.1l-2.6-0.4l-0.2-0.2l-6.3-6.9l0,0l0,0l2.1-0.1l2.3-0.1l1.7,0l3.5-0.1l0.6,0l0.7,0l3.5-0.1l2.8-0.1l0.5,0l0.5,0l2-0.1l1.4,0l0.5,0l0.5,0l1.9-0.1l1.7,0l1,0l0.7,0l0.8,0l0.8,0l0.8,0l0.9,0l2.5-0.1l0.1,0l0.3,0l0.6,0l0,0l0.2,0l0.9,0l0.5,0l2.5,0.2l1,0.1l3.3,0.2l0.7,0l0.7,0l0.2,0l2.5,0.2l0.7,0.1l2.1,0.2l0.6,0l0,0l0.7,0l2.6,0.1l1.2,0.1l1.6,0.1l0.1,0l0.1,0l0.2,0l0.7,0l3.2,0.2l3.7,0.2l0.7,0l0,0l0.4,0l3.8,0.4l2.5,0.3l0.6,0.1l0.6,0.1l10.4,1l0.4,0l0,0l0.5,0l2.6,0.3l1.6,0.2l0.6,0.1l0.6,0.1l1.7,0.2l1.5,0.2l0.6,0.1l0.6,0.1l1.5,0.1l0.9,0.1l1.1,0.1l0.3,0.1l0.2,0.1l2,0.7l2.4,0.8l0.6,0.2l1,0.3l0.9,0.3l1.1,0.4l0.7,0.2l0.4,0.2l0.5,0.1l0.8,0.3l0.9,0.3l0.9,0.3l2,0.6l0.6,0.2l0.6,0.2l1.9,0.6l0.9,0.3l0.1,0l0.4,0.1l-0.2,1.2l-0.9,4.7L602.1,353.2z"/>
	<path id="3522" fill="#aaa" stroke="#000000" stroke-width="0.5" stroke-miterlimit="10" d="M650.5,335.4l2.9,1.9l4.7,3.2l-0.5,2.7l-0.4,2.3l-0.2,1.1l0,0l-6.5-1l-7.1-1.2l-0.2,1l-1.1,6.5l-1.3,7.8l-1,5.7l-0.4,2.1l0,0.1l-1.1,6.6l-0.2,0.9l0,0.1l-11.6-2l-2-0.3l-1.4-0.2l-4.8-0.8l-4.9-0.8l-5.5-1l-1-0.2l-5.9-0.9l-0.6,0l-1.7-0.1l0,0l1.9-8.1l1.4-7.5l1.8-9.1l0.9-4.7l0.2-1.2l0.2,0.1l0.6,0.2l1.4,0.5l1.5,0.5l3,1l2.1,0.7l2.3,0.7l0.5,0.2l0,0l5.3-11.2l0.9,1.1l1.2,2.5l0.3,0.5l0.1,0.3l0.1,0.3l0.1,0.3l0.1,0.3l0.2,0.3l0.2,0.2l0.2,0.2l0.2,0.2l0.2,0.2l0.2,0.2l0.2,0.2l0.2,0.2l0.2,0.2l0.2,0.2l0.2,0.2l0.3,0.1l0.3,0.1l0.3,0.1l0.3,0.1l0.3,0.1l0.3,0.1l0.3,0.1l0.3,0.1l0.3,0l0.3,0l0.3,0l0.3,0l0.3,0l0.3,0l0.3,0l1.6-0.3l0.2,0l1.9-0.3l0.9-0.1l1.2-0.1l5,0.3l1.9-0.2l0.7-0.1l0.8-0.1l1.5-0.3l1.4-0.5l0.5-0.3l1.5-0.9L650.5,335.4z"/>
	<path id="3531.01" fill="#aaa" stroke="#000000" stroke-width="0.5" stroke-miterlimit="10" d="M578.2,456.9l-0.1,0.1l-0.7,0.7l-1.3,1.1l-5.5,3.8l-6.8,4.7l-9.9,6.7l-6.4,4.3l-6.8,4.6l-0.3,0.2l-4.9,3.3l-7.6,5.1l-20.1,13.4l-0.7-0.5l-6.3-4.8l0,0l-3.6-2.7l-3.5-2.9l-3.8-2.9l-2.4-1.9l-2.9-2.3l-3.3-2.6l-0.1,0l0.3-0.2l0.4-0.3l1.7-1.9l1.5-1.7l1-1.1l0.9-0.9l3.7-4.7l4.8-6l-3.8-3l-10.2-8.1l-4.2,6l-8.2-6.6l-3-2.4l2.5-3.1l2.1-2.6l4.6-5.7l3.5-4.3l1.5-1.8l4,3.2l0.2-0.2l6-7.9l0.2-0.3l0.2-0.5l0.1-0.1l4.3-8.5l0.1,0l15.3,6.1l1.1,0.4l1.3,0.5l2.6,0.7l3.2,0.9l0.5,0.1l6.3,1.8l6.7,1.8l0.1,0l-1.3,4.7l-1.2,4.3l-0.3,2l-0.8,6.9l0.2,0.5l4.6,0.4l7.2,0.7l4.5,0.4l9.1,0.9l14.4,1.4l1.2,0.1l3.4,0.3L578.2,456.9z"/>
	<path id="3550" fill="#aaa" stroke="#000000" stroke-width="0.5" stroke-miterlimit="10" d="M310.1,127.7l-2.4,2.1l-3.3,3l-1.3,1.3l-0.8,0.8
		l-2.5-2.6l-2.6-3.3l-3.6-4l-0.3-0.4l-3.2-4.1l-2.8-3.5L284,113l-2.1-2.6l-0.1-0.1l-2.9-3.3l-2.4-2.9l-0.6-0.7l-0.7-0.8l-1.3-1.5l-1.7-2l-0.9-1l-2.5-2.9l-3.1-3.8l-0.1-0.1l-3.2-3.9l0,0l-1.4-1.6l-4.4-5l-4.1-4.9l-3.2-3.8l-3.4-4l-1.5-1.8l0,1.8l-10.3-0.8l-0.5-0.1l-2-0.3l-5.1-0.6l-0.8-0.1L214,65.2l-19.7-1.3l-8.4-0.4l-6.2-0.4l-6.7,0.1l-5.6,0.1l-1.8-0.5l-0.8-0.8l-0.8-1.3l-0.4-1.6l-0.2-1.5l0.1-1.5l0,0l-0.1,0l-2.3-0.1l-2.1-0.5l-2.3-0.6l0.1-0.1l7-7.6l9.7-5.3l4.2-0.3l9.4-0.6l8.8-6.6l3.6-3.5l0.1-0.1l5.2-5l9-13.4l2.4-6.6l0.8-2.3l0.4-1.4l0.7-0.6l0.4-0.3l0.2-0.1l3.3,3.5l6,6.4l1.4,1.5l11.5,12.8l2.9,4.4l0.1,0.1l1.5,2.2l0.4,0.6
		l0.3,0.5l1.1,1.7l0.3,0.4l1.1,1.7l0.4,0.6l0.4,0.6l0.4,0.7L250,39l1.6,2.5l0.7,1.1l1.1,1.7l0.4,0.6l0.4,0.5l0.2,0.3l0.6,1l0.8,1.2l0.8,1.2l0.8,1.2l0.8,1.2l0.6,0.9l1,1.6l1.2,1.9l0.4,0.7l0.4,0.7l0,0.1l0.1,0.1l0.5,0.8l1.2,1.9l0.5,0.8l1.7,2.6l0.7,1.1l0.4,0.7l1.2,1.8l1.2,1.9l0.1,0.1l1.6,2.4l0.9,1.4l0.8,1.2l0.5,0.7l0.3,0.5l0.3,0.5l0.2,0.2l0.9,1.5l0.4,0.7l0.7,1l0.7,1l0.7,1l0.7,1l0.7,1
		l0.7,1l0.7,1.1l2,3.1l0.3,0.5l0,0l0.3,0.5l1.8,2.8l1.9,3l0.4,0.6l0.3,0.5l0.2,0.4l0.6,1l0.6,0.9l0.4,0.6l2,3.1l0.4,0.5l0.1,0.2l0.2,0.3l2,3l0.2,0.4l1.9,2.9l2.3,3.6l0.3,0.5l0.3,0.5l4.6,5.7l0.3,0.3l0.1,0.1l0.3,0.4l1.5,1.7l0.2,0.2l1.6,1.9l2.3,2.8L310.1,127.7L310.1,127.7z"/>
	</g></g></svg>